<?xml version="1.0" encoding="UTF-8" standalone="no"?>
<!-- Created with Inkscape (http://www.inkscape.org/) -->

<svg
   xmlns:dc="http://purl.org/dc/elements/1.1/"
   xmlns:cc="http://creativecommons.org/ns#"
   xmlns:rdf="http://www.w3.org/1999/02/22-rdf-syntax-ns#"
   xmlns:svg="http://www.w3.org/2000/svg"
   xmlns="http://www.w3.org/2000/svg"
   xmlns:sodipodi="http://sodipodi.sourceforge.net/DTD/sodipodi-0.dtd"
   xmlns:inkscape="http://www.inkscape.org/namespaces/inkscape"
   width="210mm"
   height="297mm"
   viewBox="0 0 210 297"
   version="1.1"
   id="svg8"
   sodipodi:docname="mug1.svg"
   inkscape:version="0.92.4 5da689c313, 2019-01-14"
   inkscape:export-filename="/home/ben/Pictures/editing/wegsmol/mug/mug1.png"
   inkscape:export-xdpi="96"
   inkscape:export-ydpi="96">
  <defs
     id="defs2" />
  <sodipodi:namedview
     id="base"
     pagecolor="#ffffff"
     bordercolor="#666666"
     borderopacity="1.0"
     inkscape:pageopacity="0.0"
     inkscape:pageshadow="2"
     inkscape:zoom="0.24748737"
     inkscape:cx="-1956.3358"
     inkscape:cy="-510.25349"
     inkscape:document-units="mm"
     inkscape:current-layer="layer1"
     showgrid="false"
     showborder="false"
     inkscape:window-width="1361"
     inkscape:window-height="1048"
     inkscape:window-x="1197"
     inkscape:window-y="0"
     inkscape:window-maximized="0" />
  <metadata
     id="metadata5">
    <rdf:RDF>
      <cc:Work
         rdf:about="">
        <dc:format>image/svg+xml</dc:format>
        <dc:type
           rdf:resource="http://purl.org/dc/dcmitype/StillImage" />
        <dc:title />
      </cc:Work>
    </rdf:RDF>
  </metadata>
  <g
     inkscape:label="Layer 1"
     inkscape:groupmode="layer"
     id="layer1">
    <g
       id="g4529"
       transform="translate(-103.15491,17.493007)">
      <path
         style="fill:#000000;stroke-width:0.26458332"
         d="m -215.10624,277.03791 c -0.65485,-0.54194 -2.20995,-1.88086 -3.45578,-2.97539 -11.97268,-10.36125 -22.92089,-19.65896 -33.84533,-29.10984 -6.29854,-5.45476 -9.08385,-7.82461 -9.42221,-8.01679 -0.53698,-0.305 -0.45806,-1.17923 0.13513,-1.49669 0.2792,-0.14943 2.15444,-0.85995 4.16719,-1.57895 2.01275,-0.719 5.6836,-2.04185 8.15746,-2.93966 10.16168,-3.68789 10.27544,-3.72348 10.94711,-3.42567 0.3456,0.15324 2.01247,1.08711 3.70416,2.07526 1.6917,0.98816 4.80222,2.7877 6.91227,3.99897 2.11005,1.21128 4.37224,2.5249 5.02708,2.91915 0.65484,0.39426 3.01338,1.76667 5.2412,3.0498 2.22781,1.28312 4.16343,2.54383 4.30137,2.80158 0.15278,0.28546 0.22421,7.3236 0.18276,18.00752 -0.0595,15.34763 -0.11762,17.54747 -0.46491,17.60748 -0.21828,0.0377 -0.93266,-0.37483 -1.5875,-0.91677 z m -13.11578,-20.85934 c 0.65161,-0.6516 0.49456,-1.31232 -0.52463,-2.20718 -0.84064,-0.73809 -0.983,-0.7831 -1.34182,-0.42429 -0.61855,0.61856 -1.30848,0.48035 -2.05988,-0.41264 -0.7246,-0.86114 -0.87154,-1.80289 -0.39988,-2.56298 0.41616,-0.67065 -0.60121,-2.97297 -1.31373,-2.97297 -0.81728,0 -2.06657,-1.22858 -2.55814,-2.51575 -0.4188,-1.09659 -0.41969,-1.22374 -0.0129,-1.84455 0.49582,-0.75671 1.11987,-0.82002 2.66352,-0.27021 0.57652,0.20534 1.0844,0.33714 1.12865,0.2929 0.0442,-0.0442 -0.0149,-0.53922 -0.13139,-1.09996 -0.19172,-0.92275 -0.34908,-1.07605 -1.65781,-1.6151 -0.79529,-0.32757 -1.81975,-0.60113 -2.27657,-0.60791 -2.95219,-0.0438 -2.84091,4.32736 0.19858,7.80076 0.7114,0.81296 1.29287,1.73908 1.29215,2.05803 -0.004,1.92614 2.50088,5.61791 4.36287,6.42927 1.08397,0.47233 2.1301,0.45348 2.631,-0.0474 z m 17.7068,21.51904 c -0.21033,-0.34033 -0.35863,-34.01317 -0.15438,-35.05407 0.13466,-0.68626 0.62133,-1.00089 8.92481,-5.76982 3.34698,-1.92226 8.51797,-4.89717 11.49109,-6.61091 l 5.40566,-3.11588 1.20892,0.45685 c 0.6649,0.25127 3.70923,1.35343 6.76517,2.44925 3.05593,1.09582 6.68734,2.40737 8.06979,2.91455 1.38245,0.50718 3.04932,1.09484 3.70416,1.30592 1.59888,0.51537 3.52514,1.48623 3.62893,1.82902 0.0463,0.15288 -5.12527,4.73678 -11.49236,10.18646 -6.36708,5.44967 -14.31305,12.28974 -17.65771,15.20016 -8.6487,7.52582 -19.27396,16.53645 -19.49965,16.53645 -0.10545,0 -0.28294,-0.14759 -0.39443,-0.32798 z m 17.53782,-20.46394 c 1.26304,-0.13079 1.37051,-0.19806 1.52135,-0.95227 0.31868,-1.59339 0.33947,-1.57726 -1.78592,-1.38466 -1.35418,0.12271 -2.00554,0.0838 -2.13617,-0.12754 -0.15553,-0.25166 5.06286,-10.35381 6.41235,-12.41346 0.39996,-0.61045 0.39744,-0.61228 -0.72909,-0.52917 l -1.13044,0.0834 -1.91808,3.57188 c -1.05494,1.96453 -2.94627,5.41157 -4.20296,7.6601 -1.25668,2.24853 -2.28488,4.16043 -2.28488,4.24867 0,0.17341 4.04367,0.0719 6.25384,-0.15695 z m -19.88716,-17.66612 c -6.32738,-3.57451 -13.0363,-7.64604 -18.64585,-10.81872 -5.68989,-3.17434 -5.65822,-3.14825 -5.18798,-4.27371 0.2918,-0.69838 6.16241,-12.18145 18.75204,-36.67951 5.18414,-10.08777 5.53603,-10.70855 6.07007,-10.70855 0.39921,0 1.0839,1.11474 3.0877,5.02708 5.50451,10.74729 9.71689,18.95655 11.74364,22.88646 1.16325,2.25557 3.09717,6.00604 4.2976,8.33437 4.67388,9.06536 5.99923,11.79684 5.87593,12.11004 -0.0704,0.17896 -1.60031,1.14919 -3.39969,2.15606 -1.79938,1.00688 -5.23613,2.98491 -7.63723,4.39563 -8.18289,4.80771 -13.72553,7.9289 -14.08022,7.9289 -0.19476,0 -0.58897,-0.16112 -0.87601,-0.35805 z m -3.09733,-26.96018 -0.0704,-7.2099 h -1.05834 c -0.95752,0 -1.10384,0.0931 -1.5361,0.97744 -0.46203,0.94524 -0.46166,0.99355 0.0113,1.46647 0.86152,1.15159 0.50151,6.13755 0.50151,10.45453 l 0.14928,1.52135 h 1.0366 1.03661 l -0.0704,-7.20989 z m 8.34276,6.85243 c 1.14172,-0.47704 2.50149,-2.0667 2.7076,-3.16537 0.0917,-0.48857 0.1273,-2.49516 0.0792,-4.45909 -0.0843,-3.44081 -0.11443,-3.6061 -0.82874,-4.54158 -0.95574,-1.25167 -1.97374,-1.764 -3.50507,-1.764 -1.64715,0 -2.93029,0.6549 -3.77036,1.92434 -0.65162,0.98465 -0.69695,1.26098 -0.75127,4.57994 -0.0318,1.94263 0.0638,3.98256 0.21254,4.53316 0.67785,2.50989 3.47056,3.88934 5.8561,2.8926 z m -2.4004,-1.94678 c -1.18349,-0.22716 -1.44361,-1.10464 -1.43726,-4.84844 0.007,-3.97786 0.24014,-4.61546 1.79628,-4.9074 1.11439,-0.20906 2.23292,0.45562 2.52524,1.5006 0.29603,1.05824 0.25171,5.92351 -0.0622,6.82387 -0.262,0.75159 -1.43988,1.67979 -2.0087,1.58292 -0.11636,-0.0198 -0.4824,-0.088 -0.8134,-0.15155 z m -53.85533,15.8891 c -0.0986,-0.0986 -0.1793,-3.17839 -0.1793,-6.84393 v -6.66464 l 5.35781,-4.59139 c 2.9468,-2.52526 8.7511,-7.53014 12.89844,-11.12195 15.75841,-13.64758 28.06127,-24.05044 28.44308,-24.05044 0.21808,0 0.3965,0.16608 0.3965,0.36906 0,0.32317 -7.67774,15.43114 -17.15764,33.76218 -1.69326,3.27422 -3.61776,7.02355 -4.27665,8.33185 l -1.198,2.37872 -3.56666,1.28394 c -1.96167,0.70616 -5.17401,1.86075 -7.13854,2.56575 -1.96454,0.705 -5.53641,1.9875 -7.9375,2.85001 -5.42929,1.95028 -5.42378,1.94859 -5.64154,1.73084 z m 18.65143,-18.25607 c 0.7243,-0.65549 0.60187,-1.01748 -0.70677,-2.08982 -1.24981,-1.02413 -1.50455,-1.79056 -0.7276,-2.18912 0.25466,-0.13064 1.37065,-0.31063 2.47998,-0.39997 2.50374,-0.20166 3.09306,-0.42255 4.49389,-1.68442 2.17361,-1.958 2.67806,-4.64955 1.03104,-5.50126 -1.24026,-0.64136 -2.3483,-0.52197 -2.65554,0.28613 -0.3255,0.85613 -0.14076,1.16842 0.69118,1.16842 1.00121,0 1.38654,1.07297 0.81543,2.2706 -0.53438,1.12061 -1.73606,1.69752 -3.54019,1.69963 -2.12343,0.002 -3.22096,0.46285 -4.88314,2.04831 -0.84783,0.80869 -1.54151,1.61656 -1.54151,1.79527 0,0.35586 3.34052,3.03411 3.78436,3.03411 0.15126,0 0.49275,-0.19705 0.75887,-0.43788 z m 78.929,16.27509 c -3.19936,-1.1495 -6.29327,-2.26009 -6.87536,-2.46797 -7.66252,-2.73661 -10.60539,-3.88479 -10.98897,-4.28741 -0.25302,-0.26558 -1.79865,-3.10225 -3.43472,-6.3037 -1.63608,-3.20146 -3.9563,-7.72584 -5.15604,-10.05417 -1.19974,-2.32833 -3.4622,-6.73365 -5.02768,-9.78958 -1.56548,-3.05594 -3.58813,-6.985 -4.49479,-8.73125 -3.20626,-6.17538 -4.63217,-9.05489 -4.63217,-9.35432 0,-0.63435 0.86695,-0.2537 2.47362,1.08609 10.02191,8.52415 20.49188,17.62947 30.31079,25.99531 1.36676,1.16417 3.58381,3.06917 4.92677,4.23333 1.34296,1.16417 4.0039,3.4702 5.9132,5.12452 l 3.47145,3.00784 0.0228,1.95309 c 0.0125,1.0742 0.0228,3.38184 0.0228,5.12809 0,5.77411 -0.0304,6.28755 -0.38015,6.42176 -0.18399,0.0706 -2.95219,-0.81213 -6.15156,-1.96163 z m -9.75932,-14.88471 c 0.78935,-0.78934 0.89959,-1.06598 0.89959,-2.25746 0,-2.40126 -1.22314,-4.31876 -3.48648,-5.46568 -0.71549,-0.36256 -1.36598,-0.86273 -1.44555,-1.11147 -0.48274,-1.50922 -0.81763,-2.03053 -1.84558,-2.87286 -2.70048,-2.21284 -5.65781,-1.3093 -5.65781,1.72862 0,1.52963 0.9767,3.2026 2.4457,4.18919 0.85538,0.57449 1.15623,0.96884 1.27412,1.67013 0.21352,1.27017 0.81714,2.33126 1.9927,3.50297 1.09543,1.09184 2.01573,1.45585 3.77279,1.49228 0.97247,0.0202 1.29044,-0.11563 2.05052,-0.87572 z m -4.73962,-2.12057 c -1.876,-1.73863 -0.56525,-4.52049 1.68983,-3.58641 0.90269,0.37391 1.83012,1.64619 1.83172,2.5128 0.003,1.67871 -2.15779,2.33749 -3.52155,1.07361 z m -3.48892,-5.48745 c -1.2596,-0.68895 -1.52646,-1.73989 -0.66145,-2.6049 0.69829,-0.69829 1.20858,-0.66755 1.9964,0.12027 0.81283,0.81284 0.83918,1.83349 0.0614,2.37827 -0.68854,0.48228 -0.70654,0.48365 -1.39634,0.10636 z"
         inkscape:connector-curvature="0"
         id="path4541"
         sodipodi:nodetypes="cccccscccccccccccscssscccccscccccccccscccsccsssccccccccscsccccsscssccsscccsccccccccscccscccscccscccccsccsssscccccccccccccscccsscccccsccsccccccsccccscccscsccccccccscccc" />
    </g>
    <g
       aria-label="Wayfarer's Exhaustive Guide to Spacetravel and Maintaining an Opulent Lifestyle"
       style="font-style:normal;font-weight:normal;font-size:10.58333302px;line-height:1.25;font-family:sans-serif;letter-spacing:0px;word-spacing:0px;fill:#000000;fill-opacity:1;stroke:none;stroke-width:0.26458332"
       id="text4549">
      <path
         d="m -366.49061,312.08366 -0.99219,4.11758 -0.42168,1.77353 -0.12402,0.5085 q -0.18604,0.75654 -0.75655,0.91777 v 0.0496 h -3.27421 v -0.0124 q -0.11163,0.0124 -0.21084,0.0124 -0.86817,0 -1.10381,-0.96738 l -0.12403,-0.5085 -3.05097,-12.38994 q -0.0372,-0.14883 -0.0372,-0.40927 0,-0.62012 0.62012,-0.62012 h 3.24941 q 0.11162,-0.0124 0.21084,-0.0124 0.86817,0 1.10381,0.96738 l 1.93477,7.90029 1.6247,-6.94531 0.22324,-0.93018 q 0.22325,-0.90537 1.00459,-0.96738 h 0.23565 q 0.78135,0.062 1.00459,0.96738 l 0.22324,0.93018 1.5875,6.78408 1.81074,-7.71426 q 0.23565,-0.96738 1.10381,-0.96738 l 1.0294,0.0248 q 0.60771,0 0.60771,0.62011 0,0.21084 -0.0744,0.34727 l 0.0124,0.0124 -2.54248,10.62881 -0.42168,1.77353 -0.12402,0.5085 q -0.17364,0.71934 -0.69454,0.90537 v 0.062 h -1.41386 v -0.062 q -0.5209,-0.18603 -0.69453,-0.90537 l -0.12403,-0.5085 -0.42168,-1.77353 z"
         style="font-style:normal;font-variant:normal;font-weight:normal;font-stretch:normal;font-size:25.39999962px;font-family:'HeavyData Nerd Font';-inkscape-font-specification:'HeavyData Nerd Font, Normal';font-variant-ligatures:normal;font-variant-caps:normal;font-variant-numeric:normal;font-feature-settings:normal;text-align:center;writing-mode:lr-tb;text-anchor:middle;stroke-width:0.26458332"
         id="path4794"
         inkscape:connector-curvature="0" />
      <path
         d="m -357.87098,319.40104 q -0.60772,0 -0.60772,-0.62011 0,-0.21084 0.0744,-0.34727 l -0.0124,-0.0124 2.54248,-10.62881 0.42168,-1.77354 0.12403,-0.50849 q 0.23564,-0.96738 1.10381,-0.96738 0.0992,0 0.21084,0.0124 v -0.0124 h 4.06796 v 0.0124 q 0.11163,-0.0124 0.21084,-0.0124 0.86817,0 1.10381,0.96738 l 0.12403,0.50849 3.05097,12.38995 q 0.0372,0.14882 0.0372,0.40927 0,0.62012 -0.62012,0.62012 h -3.24941 q -0.11162,0.0124 -0.21084,0.0124 -0.86817,0 -1.10381,-0.96738 l -2.61689,-10.69082 h -0.0124 l -2.50527,10.66602 q -0.23564,0.96738 -1.10381,0.96738 z m 5.95312,-1.19062 q -0.0992,1.22783 -1.24023,1.24023 -1.24024,0 -1.24024,-1.21543 l -0.0124,-2.51767 q 0,-1.24024 1.24024,-1.24024 1.14101,0.0124 1.24023,1.25264 z"
         style="font-style:normal;font-variant:normal;font-weight:normal;font-stretch:normal;font-size:25.39999962px;font-family:'HeavyData Nerd Font';-inkscape-font-specification:'HeavyData Nerd Font, Normal';font-variant-ligatures:normal;font-variant-caps:normal;font-variant-numeric:normal;font-feature-settings:normal;text-align:center;writing-mode:lr-tb;text-anchor:middle;stroke-width:0.26458332"
         id="path4796"
         inkscape:connector-curvature="0" />
      <path
         d="m -340.84256,313.06345 -3.48506,-6.59805 q -0.14883,-0.35967 -0.14883,-0.65732 0,-0.66973 0.75654,-1.06661 0.37207,-0.19843 0.69453,-0.19843 l 1.98438,-0.0372 q 0.59531,0 0.97978,0.71934 l 2.50528,5.02294 2.72851,-5.08496 q 0.38447,-0.70693 0.99219,-0.70693 0.31006,0 0.68213,0.18603 0.75654,0.39688 0.75654,1.06661 0,0.29765 -0.14883,0.65732 l -3.32383,6.53604 -0.0124,5.3206 q -0.0992,1.22783 -1.17822,1.24024 h -2.54248 q -1.24023,0 -1.24023,-1.22784 z"
         style="font-style:normal;font-variant:normal;font-weight:normal;font-stretch:normal;font-size:25.39999962px;font-family:'HeavyData Nerd Font';-inkscape-font-specification:'HeavyData Nerd Font, Normal';font-variant-ligatures:normal;font-variant-caps:normal;font-variant-numeric:normal;font-feature-settings:normal;text-align:center;writing-mode:lr-tb;text-anchor:middle;stroke-width:0.26458332"
         id="path4798"
         inkscape:connector-curvature="0" />
      <path
         d="m -325.31483,313.26188 0.0372,4.89893 q 0,1.28984 -1.24024,1.28984 h -2.51767 q -1.24024,0 -1.24024,-1.22783 v -12.45195 q 0,-1.24024 1.24024,-1.24024 l 8.69404,-0.0124 q 1.21543,0 1.21543,1.19063 v 0.0744 q 0,1.19063 -1.25264,1.16582 l -7.4166,0.0248 v 3.79511 h 7.4042 q 1.24023,0 1.24023,1.24024 0,1.28984 -1.24023,1.28984 z"
         style="font-style:normal;font-variant:normal;font-weight:normal;font-stretch:normal;font-size:25.39999962px;font-family:'HeavyData Nerd Font';-inkscape-font-specification:'HeavyData Nerd Font, Normal';font-variant-ligatures:normal;font-variant-caps:normal;font-variant-numeric:normal;font-feature-settings:normal;text-align:center;writing-mode:lr-tb;text-anchor:middle;stroke-width:0.26458332"
         id="path4800"
         inkscape:connector-curvature="0" />
      <path
         d="m -316.94325,319.40104 q -0.60771,0 -0.60771,-0.62011 0,-0.21084 0.0744,-0.34727 l -0.0124,-0.0124 2.54248,-10.62881 0.42168,-1.77354 0.12402,-0.50849 q 0.23565,-0.96738 1.10381,-0.96738 0.0992,0 0.21084,0.0124 v -0.0124 h 4.06797 v 0.0124 q 0.11162,-0.0124 0.21084,-0.0124 0.86816,0 1.10381,0.96738 l 0.12402,0.50849 3.05098,12.38995 q 0.0372,0.14882 0.0372,0.40927 0,0.62012 -0.62011,0.62012 h -3.24942 q -0.11162,0.0124 -0.21084,0.0124 -0.86816,0 -1.10381,-0.96738 l -2.61689,-10.69082 h -0.0124 l -2.50528,10.66602 q -0.23564,0.96738 -1.1038,0.96738 z m 5.95313,-1.19062 q -0.0992,1.22783 -1.24024,1.24023 -1.24023,0 -1.24023,-1.21543 l -0.0124,-2.51767 q 0,-1.24024 1.24023,-1.24024 1.14102,0.0124 1.24023,1.25264 z"
         style="font-style:normal;font-variant:normal;font-weight:normal;font-stretch:normal;font-size:25.39999962px;font-family:'HeavyData Nerd Font';-inkscape-font-specification:'HeavyData Nerd Font, Normal';font-variant-ligatures:normal;font-variant-caps:normal;font-variant-numeric:normal;font-feature-settings:normal;text-align:center;writing-mode:lr-tb;text-anchor:middle;stroke-width:0.26458332"
         id="path4802"
         inkscape:connector-curvature="0" />
      <path
         d="m -296.77704,306.94909 -3.7331,0.0248 v 3.79511 h 3.7207 z m -0.38447,6.3252 -0.86816,-0.0124 0.0372,4.89893 q 0,1.28984 -1.24023,1.28984 h -2.51768 q -1.24023,0 -1.24023,-1.22783 v -12.45195 q 0,-1.24024 1.24023,-1.24024 l 8.69405,-0.0124 q 1.21543,0 1.21543,1.26504 l -0.0248,6.23838 q 0,1.27744 -1.24023,1.27744 l -1.15342,-0.0124 2.24482,4.35322 q 0.4961,1.15342 -0.60771,1.72393 -1.09141,0.5705 -1.67432,-0.5209 z"
         style="font-style:normal;font-variant:normal;font-weight:normal;font-stretch:normal;font-size:25.39999962px;font-family:'HeavyData Nerd Font';-inkscape-font-specification:'HeavyData Nerd Font, Normal';font-variant-ligatures:normal;font-variant-caps:normal;font-variant-numeric:normal;font-feature-settings:normal;text-align:center;writing-mode:lr-tb;text-anchor:middle;stroke-width:0.26458332"
         id="path4804"
         inkscape:connector-curvature="0" />
      <path
         d="m -279.46337,310.6822 q 1.24024,0 1.24024,1.27744 0,1.24023 -1.24024,1.24023 h -7.40419 v 3.80752 l 7.4166,0.0248 q 1.26504,-0.0248 1.25263,1.19062 0.0248,1.22783 -1.21543,1.22783 h -8.69404 q -1.24023,0 -1.24023,-1.24023 l 0.0124,-6.26318 q -0.0124,-1.24024 1.22783,-1.25264 l 0.0124,-4.92373 q 0,-1.24024 1.24024,-1.24024 l 7.429,-0.0124 q 1.24024,0 1.24024,1.30225 0,1.17822 -1.24024,1.17822 h -3.7083 v 3.67109 z"
         style="font-style:normal;font-variant:normal;font-weight:normal;font-stretch:normal;font-size:25.39999962px;font-family:'HeavyData Nerd Font';-inkscape-font-specification:'HeavyData Nerd Font, Normal';font-variant-ligatures:normal;font-variant-caps:normal;font-variant-numeric:normal;font-feature-settings:normal;text-align:center;writing-mode:lr-tb;text-anchor:middle;stroke-width:0.26458332"
         id="path4806"
         inkscape:connector-curvature="0" />
      <path
         d="m -269.49188,306.94909 -3.73311,0.0248 v 3.79511 h 3.72071 z m -0.38447,6.3252 -0.86817,-0.0124 0.0372,4.89893 q 0,1.28984 -1.24024,1.28984 h -2.51767 q -1.24024,0 -1.24024,-1.22783 v -12.45195 q 0,-1.24024 1.24024,-1.24024 l 8.69404,-0.0124 q 1.21543,0 1.21543,1.26504 l -0.0248,6.23838 q 0,1.27744 -1.24024,1.27744 l -1.15342,-0.0124 2.24483,4.35322 q 0.49609,1.15342 -0.60772,1.72393 -1.0914,0.5705 -1.67431,-0.5209 z"
         style="font-style:normal;font-variant:normal;font-weight:normal;font-stretch:normal;font-size:25.39999962px;font-family:'HeavyData Nerd Font';-inkscape-font-specification:'HeavyData Nerd Font, Normal';font-variant-ligatures:normal;font-variant-caps:normal;font-variant-numeric:normal;font-feature-settings:normal;text-align:center;writing-mode:lr-tb;text-anchor:middle;stroke-width:0.26458332"
         id="path4808"
         inkscape:connector-curvature="0" />
      <path
         d="m -261.45516,307.64362 q -0.63252,-0.0868 -0.63252,-1.0542 l -0.0124,-2.26963 q 0,-1.0542 0.63252,-1.0542 l 0.65732,-0.0124 q 0.63252,0 0.63252,1.0542 v 2.30684 q -0.0124,0.93017 -0.64492,1.01699 z"
         style="font-style:normal;font-variant:normal;font-weight:normal;font-stretch:normal;font-size:25.39999962px;font-family:'HeavyData Nerd Font';-inkscape-font-specification:'HeavyData Nerd Font, Normal';font-variant-ligatures:normal;font-variant-caps:normal;font-variant-numeric:normal;font-feature-settings:normal;text-align:center;writing-mode:lr-tb;text-anchor:middle;stroke-width:0.26458332"
         id="path4810"
         inkscape:connector-curvature="0" />
      <path
         d="m -247.77538,309.50397 q 1.24024,0 1.24024,1.21543 v 7.54063 q 0,1.24023 -1.24024,1.24023 h -7.36699 q -1.28984,-0.0124 -1.26504,-1.24023 0.0124,-1.24024 1.24023,-1.24024 h 6.15157 v -2.55488 l -7.46621,0.0124 q -1.17823,0 -1.21543,-1.21543 l -0.0124,-7.50341 q 0,-1.24024 1.24024,-1.24024 l 8.60722,0.0124 q 1.20303,0.0992 1.25264,1.24024 -0.0124,1.24023 -1.25264,1.24023 l -7.30498,0.0124 0.0372,2.49288 z"
         style="font-style:normal;font-variant:normal;font-weight:normal;font-stretch:normal;font-size:25.39999962px;font-family:'HeavyData Nerd Font';-inkscape-font-specification:'HeavyData Nerd Font, Normal';font-variant-ligatures:normal;font-variant-caps:normal;font-variant-numeric:normal;font-feature-settings:normal;text-align:center;writing-mode:lr-tb;text-anchor:middle;stroke-width:0.26458332"
         id="path4812"
         inkscape:connector-curvature="0" />
      <path
         d="m -365.70926,342.4322 q 1.24023,0 1.24023,1.27744 0,1.24023 -1.24023,1.24023 h -7.4042 v 3.80752 l 7.4166,0.0248 q 1.26504,-0.0248 1.25263,1.19062 0.0248,1.22783 -1.21542,1.22783 h -8.69405 q -1.24023,0 -1.24023,-1.24023 l 0.0124,-6.26319 q -0.0124,-1.24023 1.22783,-1.25263 l 0.0124,-4.92373 q 0,-1.24024 1.24024,-1.24024 l 7.429,-0.0124 q 1.24024,0 1.24024,1.30225 0,1.17822 -1.24024,1.17822 h -3.7083 v 3.67109 z"
         style="font-style:normal;font-variant:normal;font-weight:normal;font-stretch:normal;font-size:25.39999962px;font-family:'HeavyData Nerd Font';-inkscape-font-specification:'HeavyData Nerd Font, Normal';font-variant-ligatures:normal;font-variant-caps:normal;font-variant-numeric:normal;font-feature-settings:normal;text-align:center;writing-mode:lr-tb;text-anchor:middle;stroke-width:0.26458332"
         id="path4814"
         inkscape:connector-curvature="0" />
      <path
         d="m -355.00604,341.99811 2.15801,-5.08496 q 0.38447,-0.70693 0.99218,-0.70693 0.31006,0 0.68213,0.18603 0.75655,0.39688 0.75655,1.06661 0,0.29765 -0.14883,0.65732 l -2.77813,6.58564 2.76573,4.58887 q 0.14882,0.35967 0.14882,0.65733 0,0.66972 -0.74414,1.0666 -0.37207,0.19843 -0.69453,0.19843 l -1.98437,-0.0124 q -0.59532,0 -0.97979,-0.71933 l -3.02617,-4.93614 -2.22002,4.97334 q -0.38447,0.70694 -0.99219,0.70694 -0.31006,0 -0.68213,-0.18604 -0.75654,-0.39687 -0.75654,-1.0666 0,-0.29766 0.14883,-0.65732 l 2.92695,-6.37481 -2.91455,-4.72529 q -0.14883,-0.35967 -0.14883,-0.65733 0,-0.66972 0.75655,-1.0666 0.37207,-0.19843 0.69453,-0.19843 l 1.98437,-0.0372 q 0.59531,0 0.97979,0.71933 z"
         style="font-style:normal;font-variant:normal;font-weight:normal;font-stretch:normal;font-size:25.39999962px;font-family:'HeavyData Nerd Font';-inkscape-font-specification:'HeavyData Nerd Font, Normal';font-variant-ligatures:normal;font-variant-caps:normal;font-variant-numeric:normal;font-feature-settings:normal;text-align:center;writing-mode:lr-tb;text-anchor:middle;stroke-width:0.26458332"
         id="path4816"
         inkscape:connector-curvature="0" />
      <path
         d="m -342.05799,337.55807 q 0,-1.21542 1.16582,-1.21542 h 2.51767 q 1.21543,0 1.21543,1.26503 l -0.0124,12.32793 q 0,1.27744 -1.24024,1.27744 -1.20302,-0.0124 -1.19062,-1.28984 l 0.0124,-4.89892 -3.75791,-0.0124 v 4.94854 q 0,1.22783 -1.24023,1.22783 l -2.48047,0.0124 q -1.24024,0 -1.24024,-1.22783 v -12.40234 q 0,-1.24024 1.24024,-1.24024 1.24023,0 1.24023,1.22783 v 4.96094 h 3.77032 z"
         style="font-style:normal;font-variant:normal;font-weight:normal;font-stretch:normal;font-size:25.39999962px;font-family:'HeavyData Nerd Font';-inkscape-font-specification:'HeavyData Nerd Font, Normal';font-variant-ligatures:normal;font-variant-caps:normal;font-variant-numeric:normal;font-feature-settings:normal;text-align:center;writing-mode:lr-tb;text-anchor:middle;stroke-width:0.26458332"
         id="path4818"
         inkscape:connector-curvature="0" />
      <path
         d="m -334.97626,351.15104 q -0.60771,0 -0.60771,-0.62011 0,-0.21084 0.0744,-0.34727 l -0.0124,-0.0124 2.54248,-10.62881 0.42168,-1.77354 0.12402,-0.50849 q 0.23565,-0.96738 1.10381,-0.96738 0.0992,0 0.21084,0.0124 v -0.0124 h 4.06797 v 0.0124 q 0.11162,-0.0124 0.21084,-0.0124 0.86817,0 1.10381,0.96738 l 0.12402,0.50849 3.05098,12.38995 q 0.0372,0.14882 0.0372,0.40927 0,0.62012 -0.62012,0.62012 h -3.24941 q -0.11163,0.0124 -0.21084,0.0124 -0.86817,0 -1.10381,-0.96738 l -2.6169,-10.69082 h -0.0124 l -2.50527,10.66602 q -0.23565,0.96738 -1.10381,0.96738 z m 5.95313,-1.19062 q -0.0992,1.22783 -1.24024,1.24023 -1.24023,0 -1.24023,-1.21543 l -0.0124,-2.51767 q 0,-1.24024 1.24023,-1.24024 1.14102,0.0124 1.24024,1.25264 z"
         style="font-style:normal;font-variant:normal;font-weight:normal;font-stretch:normal;font-size:25.39999962px;font-family:'HeavyData Nerd Font';-inkscape-font-specification:'HeavyData Nerd Font, Normal';font-variant-ligatures:normal;font-variant-caps:normal;font-variant-numeric:normal;font-feature-settings:normal;text-align:center;writing-mode:lr-tb;text-anchor:middle;stroke-width:0.26458332"
         id="path4820"
         inkscape:connector-curvature="0" />
      <path
         d="m -319.79579,336.21862 q 1.24024,0 1.33946,1.24024 v 8.78086 h 6.11435 v -8.76846 q 0,-1.24024 1.24024,-1.24024 1.24023,0 1.24023,1.24024 v 12.51396 q 0,1.21543 -1.24023,1.21543 h -8.70645 q -1.22783,0 -1.21543,-1.21543 l -0.0124,-12.52636 q 0,-1.24024 1.24023,-1.24024 z"
         style="font-style:normal;font-variant:normal;font-weight:normal;font-stretch:normal;font-size:25.39999962px;font-family:'HeavyData Nerd Font';-inkscape-font-specification:'HeavyData Nerd Font, Normal';font-variant-ligatures:normal;font-variant-caps:normal;font-variant-numeric:normal;font-feature-settings:normal;text-align:center;writing-mode:lr-tb;text-anchor:middle;stroke-width:0.26458332"
         id="path4822"
         inkscape:connector-curvature="0" />
      <path
         d="m -297.45917,341.25397 q 1.24024,0 1.24024,1.21543 v 7.54063 q 0,1.24023 -1.24024,1.24023 h -7.36699 q -1.28984,-0.0124 -1.26504,-1.24023 0.0124,-1.24024 1.24024,-1.24024 h 6.15156 v -2.55488 l -7.46621,0.0124 q -1.17822,0 -1.21543,-1.21543 l -0.0124,-7.50341 q 0,-1.24024 1.24023,-1.24024 l 8.60723,0.0124 q 1.20302,0.0992 1.25263,1.24024 -0.0124,1.24023 -1.25263,1.24023 l -7.30498,0.0124 0.0372,2.49288 z"
         style="font-style:normal;font-variant:normal;font-weight:normal;font-stretch:normal;font-size:25.39999962px;font-family:'HeavyData Nerd Font';-inkscape-font-specification:'HeavyData Nerd Font, Normal';font-variant-ligatures:normal;font-variant-caps:normal;font-variant-numeric:normal;font-feature-settings:normal;text-align:center;writing-mode:lr-tb;text-anchor:middle;stroke-width:0.26458332"
         id="path4824"
         inkscape:connector-curvature="0" />
      <path
         d="m -287.48768,349.96042 q -0.0992,1.24023 -1.33946,1.24023 -1.24023,0 -1.24023,-1.24023 l 0.0124,-8.78086 h -3.03857 q -1.26504,0 -1.26504,-1.14102 v -2.62929 q 0,-1.19063 1.21543,-1.19063 h 8.70644 q 1.24024,0 1.24024,1.21543 v 0.18604 q 0,1.11621 -1.25264,1.11621 h -3.03857 z"
         style="font-style:normal;font-variant:normal;font-weight:normal;font-stretch:normal;font-size:25.39999962px;font-family:'HeavyData Nerd Font';-inkscape-font-specification:'HeavyData Nerd Font, Normal';font-variant-ligatures:normal;font-variant-caps:normal;font-variant-numeric:normal;font-feature-settings:normal;text-align:center;writing-mode:lr-tb;text-anchor:middle;stroke-width:0.26458332"
         id="path4826"
         inkscape:connector-curvature="0" />
      <path
         d="m -275.12255,349.97282 q -0.0992,1.22783 -1.17822,1.24023 h -2.54248 q -1.24023,0 -1.24023,-1.22783 l -0.0124,-12.47675 q 0,-1.24024 1.24024,-1.24024 h 2.59209 q 1.079,0.0124 1.17822,1.25264 z"
         style="font-style:normal;font-variant:normal;font-weight:normal;font-stretch:normal;font-size:25.39999962px;font-family:'HeavyData Nerd Font';-inkscape-font-specification:'HeavyData Nerd Font, Normal';font-variant-ligatures:normal;font-variant-caps:normal;font-variant-numeric:normal;font-feature-settings:normal;text-align:center;writing-mode:lr-tb;text-anchor:middle;stroke-width:0.26458332"
         id="path4828"
         inkscape:connector-curvature="0" />
      <path
         d="m -259.88007,336.34265 q 0.60772,0 0.60772,0.62011 0,0.21084 -0.0744,0.34727 l 0.0124,0.0124 -2.54248,10.62881 -0.42168,1.77353 -0.12403,0.5085 q -0.23564,0.96738 -1.1038,0.96738 -0.0992,0 -0.21084,-0.0124 v 0.0124 h -4.06797 v -0.0124 q -0.11162,0.0124 -0.21084,0.0124 -0.86817,0 -1.10381,-0.96738 l -0.12402,-0.5085 -3.05098,-12.38994 q -0.0372,-0.14883 -0.0372,-0.40927 0,-0.62012 0.62012,-0.62012 h 3.24941 q 0.11162,-0.0124 0.21084,-0.0124 0.86817,0 1.10381,0.96738 l 2.6169,10.69082 h 0.0124 l 2.50527,-10.66602 q 0.23565,-0.96738 1.10381,-0.96738 z"
         style="font-style:normal;font-variant:normal;font-weight:normal;font-stretch:normal;font-size:25.39999962px;font-family:'HeavyData Nerd Font';-inkscape-font-specification:'HeavyData Nerd Font, Normal';font-variant-ligatures:normal;font-variant-caps:normal;font-variant-numeric:normal;font-feature-settings:normal;text-align:center;writing-mode:lr-tb;text-anchor:middle;stroke-width:0.26458332"
         id="path4830"
         inkscape:connector-curvature="0" />
      <path
         d="m -247.887,342.4322 q 1.24024,0 1.24024,1.27744 0,1.24023 -1.24024,1.24023 h -7.4042 v 3.80752 l 7.4166,0.0248 q 1.26504,-0.0248 1.25264,1.19062 0.0248,1.22783 -1.21543,1.22783 h -8.69404 q -1.24024,0 -1.24024,-1.24023 l 0.0124,-6.26319 q -0.0124,-1.24023 1.22783,-1.25263 l 0.0124,-4.92373 q 0,-1.24024 1.24023,-1.24024 l 7.42901,-0.0124 q 1.24023,0 1.24023,1.30225 0,1.17822 -1.24023,1.17822 h -3.7083 v 3.67109 z"
         style="font-style:normal;font-variant:normal;font-weight:normal;font-stretch:normal;font-size:25.39999962px;font-family:'HeavyData Nerd Font';-inkscape-font-specification:'HeavyData Nerd Font, Normal';font-variant-ligatures:normal;font-variant-caps:normal;font-variant-numeric:normal;font-feature-settings:normal;text-align:center;writing-mode:lr-tb;text-anchor:middle;stroke-width:0.26458332"
         id="path4832"
         inkscape:connector-curvature="0" />
      <path
         d="m -349.98309,369.20886 q -0.0496,1.24023 -1.26504,1.24023 h -4.91133 l -0.0248,7.50342 6.21357,0.0372 v -2.48046 l -2.45566,-0.0248 q -1.25264,-0.0124 -1.25264,-1.25264 0.0124,-1.25263 1.26504,-1.25263 l 2.43086,0.0248 1.25263,-0.0124 q 1.24024,0.0248 1.24024,1.20303 v 7.54062 q 0,1.21543 -1.24024,1.21543 -1.25263,0 -1.24023,-1.28984 v -1.19063 q -1.24023,2.48047 -3.10059,2.48047 h -4.36562 q -1.21543,0 -1.21543,-1.19062 l -0.0124,-12.55117 q 0,-1.24024 1.24023,-1.24024 h 6.26318 q 1.07901,0 1.17823,1.24024 z"
         style="font-style:normal;font-variant:normal;font-weight:normal;font-stretch:normal;font-size:25.39999962px;font-family:'HeavyData Nerd Font';-inkscape-font-specification:'HeavyData Nerd Font, Normal';font-variant-ligatures:normal;font-variant-caps:normal;font-variant-numeric:normal;font-feature-settings:normal;text-align:center;writing-mode:lr-tb;text-anchor:middle;stroke-width:0.26458332"
         id="path4834"
         inkscape:connector-curvature="0" />
      <path
         d="m -343.78192,367.96862 q 1.24023,0 1.33945,1.24024 v 8.78085 h 6.11436 v -8.76845 q 0,-1.24024 1.24023,-1.24024 1.24024,0 1.24024,1.24024 v 12.51396 q 0,1.21543 -1.24024,1.21543 h -8.70644 q -1.22784,0 -1.21543,-1.21543 l -0.0124,-12.52636 q 0,-1.24024 1.24024,-1.24024 z"
         style="font-style:normal;font-variant:normal;font-weight:normal;font-stretch:normal;font-size:25.39999962px;font-family:'HeavyData Nerd Font';-inkscape-font-specification:'HeavyData Nerd Font, Normal';font-variant-ligatures:normal;font-variant-caps:normal;font-variant-numeric:normal;font-feature-settings:normal;text-align:center;writing-mode:lr-tb;text-anchor:middle;stroke-width:0.26458332"
         id="path4836"
         inkscape:connector-curvature="0" />
      <path
         d="m -325.1536,381.72282 q -0.0992,1.22783 -1.17822,1.24023 h -2.54248 q -1.24024,0 -1.24024,-1.22783 l -0.0124,-12.47676 q 0,-1.24023 1.24023,-1.24023 h 2.59209 q 1.07901,0.0124 1.17823,1.25264 z"
         style="font-style:normal;font-variant:normal;font-weight:normal;font-stretch:normal;font-size:25.39999962px;font-family:'HeavyData Nerd Font';-inkscape-font-specification:'HeavyData Nerd Font, Normal';font-variant-ligatures:normal;font-variant-caps:normal;font-variant-numeric:normal;font-feature-settings:normal;text-align:center;writing-mode:lr-tb;text-anchor:middle;stroke-width:0.26458332"
         id="path4838"
         inkscape:connector-curvature="0" />
      <path
         d="m -317.07967,370.5111 -1.87276,0.0124 0.0248,9.93428 h 1.94716 l 2.48047,-4.89892 z m 0.91777,12.43955 h -4.04317 q -1.24023,0 -1.24023,-1.22783 v -12.45195 q 0,-1.24024 1.24023,-1.24024 l 4.93614,-0.0124 v 0.0248 h 1.12861 q 0.59531,0 0.97979,0.71933 l 2.86494,5.48184 q 0.32246,0.63252 0.32246,1.25263 0,0.64493 -0.33487,1.27745 l -2.77812,5.49423 q -0.38447,0.69453 -0.99219,0.69453 h -1.92236 q -0.0744,0 -0.16123,-0.0124 z"
         style="font-style:normal;font-variant:normal;font-weight:normal;font-stretch:normal;font-size:25.39999962px;font-family:'HeavyData Nerd Font';-inkscape-font-specification:'HeavyData Nerd Font, Normal';font-variant-ligatures:normal;font-variant-caps:normal;font-variant-numeric:normal;font-feature-settings:normal;text-align:center;writing-mode:lr-tb;text-anchor:middle;stroke-width:0.26458332"
         id="path4840"
         inkscape:connector-curvature="0" />
      <path
         d="m -297.91805,374.1822 q 1.24023,0 1.24023,1.27744 0,1.24023 -1.24023,1.24023 h -7.4042 v 3.80752 l 7.4166,0.0248 q 1.26504,-0.0248 1.25264,1.19062 0.0248,1.22783 -1.21543,1.22783 h -8.69405 q -1.24023,0 -1.24023,-1.24023 l 0.0124,-6.26319 q -0.0124,-1.24023 1.22783,-1.25263 l 0.0124,-4.92373 q 0,-1.24024 1.24023,-1.24024 l 7.429,-0.0124 q 1.24024,0 1.24024,1.30225 0,1.17822 -1.24024,1.17822 h -3.7083 v 3.67109 z"
         style="font-style:normal;font-variant:normal;font-weight:normal;font-stretch:normal;font-size:25.39999962px;font-family:'HeavyData Nerd Font';-inkscape-font-specification:'HeavyData Nerd Font, Normal';font-variant-ligatures:normal;font-variant-caps:normal;font-variant-numeric:normal;font-feature-settings:normal;text-align:center;writing-mode:lr-tb;text-anchor:middle;stroke-width:0.26458332"
         id="path4842"
         inkscape:connector-curvature="0" />
      <path
         d="m -280.86483,381.71042 q -0.0992,1.24023 -1.33945,1.24023 -1.24024,0 -1.24024,-1.24023 l 0.0124,-8.78086 h -3.03858 q -1.26504,0 -1.26504,-1.14102 v -2.62929 q 0,-1.19063 1.21543,-1.19063 h 8.70645 q 1.24023,0 1.24023,1.21543 v 0.18604 q 0,1.11621 -1.25264,1.11621 h -3.03857 z"
         style="font-style:normal;font-variant:normal;font-weight:normal;font-stretch:normal;font-size:25.39999962px;font-family:'HeavyData Nerd Font';-inkscape-font-specification:'HeavyData Nerd Font, Normal';font-variant-ligatures:normal;font-variant-caps:normal;font-variant-numeric:normal;font-feature-settings:normal;text-align:center;writing-mode:lr-tb;text-anchor:middle;stroke-width:0.26458332"
         id="path4844"
         inkscape:connector-curvature="0" />
      <path
         d="m -272.14598,373.00397 v 7.46621 h 6.11435 v -7.45381 z m 7.35459,-5.02295 q 1.24023,0 1.24023,1.24024 v 12.51396 q 0,1.21543 -1.24023,1.21543 h -8.70645 q -1.22783,0 -1.21543,-1.21543 l -0.0124,-12.52636 q 0,-1.24024 1.24024,-1.24024 z"
         style="font-style:normal;font-variant:normal;font-weight:normal;font-stretch:normal;font-size:25.39999962px;font-family:'HeavyData Nerd Font';-inkscape-font-specification:'HeavyData Nerd Font, Normal';font-variant-ligatures:normal;font-variant-caps:normal;font-variant-numeric:normal;font-feature-settings:normal;text-align:center;writing-mode:lr-tb;text-anchor:middle;stroke-width:0.26458332"
         id="path4846"
         inkscape:connector-curvature="0" />
      <path
         d="m -398.95995,404.75397 q 1.24024,0 1.24024,1.21543 v 7.54063 q 0,1.24023 -1.24024,1.24023 h -7.36699 q -1.28984,-0.0124 -1.26504,-1.24023 0.0124,-1.24024 1.24024,-1.24024 h 6.15156 v -2.55488 l -7.46621,0.0124 q -1.17823,0 -1.21543,-1.21543 l -0.0124,-7.50342 q 0,-1.24023 1.24023,-1.24023 l 8.60723,0.0124 q 1.20302,0.0992 1.25263,1.24024 -0.0124,1.24023 -1.25263,1.24023 l -7.30498,0.0124 0.0372,2.49287 z"
         style="font-style:normal;font-variant:normal;font-weight:normal;font-stretch:normal;font-size:25.39999962px;font-family:'HeavyData Nerd Font';-inkscape-font-specification:'HeavyData Nerd Font, Normal';font-variant-ligatures:normal;font-variant-caps:normal;font-variant-numeric:normal;font-feature-settings:normal;text-align:center;writing-mode:lr-tb;text-anchor:middle;stroke-width:0.26458332"
         id="path4848"
         inkscape:connector-curvature="0" />
      <path
         d="m -389.01327,402.21149 -3.74551,0.0124 v 3.79512 h 3.72071 z m 4.89893,5.06016 q 0,1.27744 -1.24024,1.27744 l -4.92373,-0.0372 0.0372,4.89893 q 0,1.28984 -1.24023,1.28984 h -2.51768 q -1.24023,0 -1.24023,-1.22783 v -12.45195 q 0,-1.24024 1.24023,-1.24024 l 8.69404,-0.0124 q 1.21543,0 1.21543,1.26504 z"
         style="font-style:normal;font-variant:normal;font-weight:normal;font-stretch:normal;font-size:25.39999962px;font-family:'HeavyData Nerd Font';-inkscape-font-specification:'HeavyData Nerd Font, Normal';font-variant-ligatures:normal;font-variant-caps:normal;font-variant-numeric:normal;font-feature-settings:normal;text-align:center;writing-mode:lr-tb;text-anchor:middle;stroke-width:0.26458332"
         id="path4850"
         inkscape:connector-curvature="0" />
      <path
         d="m -381.90672,414.65104 q -0.60772,0 -0.60772,-0.62011 0,-0.21084 0.0744,-0.34727 l -0.0124,-0.0124 2.54248,-10.62881 0.42168,-1.77354 0.12403,-0.50849 q 0.23564,-0.96739 1.1038,-0.96739 0.0992,0 0.21084,0.0124 v -0.0124 h 4.06797 v 0.0124 q 0.11162,-0.0124 0.21084,-0.0124 0.86817,0 1.10381,0.96739 l 0.12402,0.50849 3.05098,12.38994 q 0.0372,0.14883 0.0372,0.40928 0,0.62012 -0.62012,0.62012 h -3.24941 q -0.11162,0.0124 -0.21084,0.0124 -0.86817,0 -1.10381,-0.96738 l -2.6169,-10.69082 h -0.0124 l -2.50527,10.66601 q -0.23565,0.96739 -1.10381,0.96739 z m 5.95312,-1.19062 q -0.0992,1.22783 -1.24023,1.24023 -1.24024,0 -1.24024,-1.21543 l -0.0124,-2.51767 q 0,-1.24024 1.24023,-1.24024 1.14102,0.0124 1.24024,1.25264 z"
         style="font-style:normal;font-variant:normal;font-weight:normal;font-stretch:normal;font-size:25.39999962px;font-family:'HeavyData Nerd Font';-inkscape-font-specification:'HeavyData Nerd Font, Normal';font-variant-ligatures:normal;font-variant-caps:normal;font-variant-numeric:normal;font-feature-settings:normal;text-align:center;writing-mode:lr-tb;text-anchor:middle;stroke-width:0.26458332"
         id="path4852"
         inkscape:connector-curvature="0" />
      <path
         d="m -358.03221,413.46042 q -0.0992,1.24023 -1.17823,1.24023 h -7.51582 q -1.24023,0 -1.24023,-1.24023 l 0.0124,-12.55117 q 0,-1.19063 1.21543,-1.19063 h 8.70645 q 1.24023,0 1.24023,1.21543 v 2.51768 q 0,1.17822 -1.24023,1.20302 -1.25264,-0.0124 -1.25264,-1.17822 v -1.17822 l -3.7083,-0.0124 0.0124,9.93427 h 3.6835 q 1.21543,0 1.26504,1.24024 z"
         style="font-style:normal;font-variant:normal;font-weight:normal;font-stretch:normal;font-size:25.39999962px;font-family:'HeavyData Nerd Font';-inkscape-font-specification:'HeavyData Nerd Font, Normal';font-variant-ligatures:normal;font-variant-caps:normal;font-variant-numeric:normal;font-feature-settings:normal;text-align:center;writing-mode:lr-tb;text-anchor:middle;stroke-width:0.26458332"
         id="path4854"
         inkscape:connector-curvature="0" />
      <path
         d="m -344.42684,405.93219 q 1.24023,0 1.24023,1.27745 0,1.24023 -1.24023,1.24023 h -7.4042 v 3.80752 l 7.4166,0.0248 q 1.26504,-0.0248 1.25264,1.19063 0.0248,1.22783 -1.21543,1.22783 h -8.69405 q -1.24023,0 -1.24023,-1.24023 l 0.0124,-6.26319 q -0.0124,-1.24023 1.22783,-1.25263 l 0.0124,-4.92373 q 0,-1.24024 1.24023,-1.24024 l 7.42901,-0.0124 q 1.24023,0 1.24023,1.30225 0,1.17822 -1.24023,1.17822 h -3.70831 v 3.67109 z"
         style="font-style:normal;font-variant:normal;font-weight:normal;font-stretch:normal;font-size:25.39999962px;font-family:'HeavyData Nerd Font';-inkscape-font-specification:'HeavyData Nerd Font, Normal';font-variant-ligatures:normal;font-variant-caps:normal;font-variant-numeric:normal;font-feature-settings:normal;text-align:center;writing-mode:lr-tb;text-anchor:middle;stroke-width:0.26458332"
         id="path4856"
         inkscape:connector-curvature="0" />
      <path
         d="m -334.41815,413.46042 q -0.0992,1.24023 -1.33945,1.24023 -1.24024,0 -1.24024,-1.24023 l 0.0124,-8.78086 h -3.03857 q -1.26504,0 -1.26504,-1.14102 v -2.62929 q 0,-1.19063 1.21543,-1.19063 h 8.70645 q 1.24023,0 1.24023,1.21543 v 0.18604 q 0,1.11621 -1.25264,1.11621 h -3.03857 z"
         style="font-style:normal;font-variant:normal;font-weight:normal;font-stretch:normal;font-size:25.39999962px;font-family:'HeavyData Nerd Font';-inkscape-font-specification:'HeavyData Nerd Font, Normal';font-variant-ligatures:normal;font-variant-caps:normal;font-variant-numeric:normal;font-feature-settings:normal;text-align:center;writing-mode:lr-tb;text-anchor:middle;stroke-width:0.26458332"
         id="path4858"
         inkscape:connector-curvature="0" />
      <path
         d="m -322.05301,402.19909 -3.73311,0.0248 v 3.79512 h 3.7207 z m -0.38448,6.32519 -0.86816,-0.0124 0.0372,4.89893 q 0,1.28984 -1.24024,1.28984 h -2.51767 q -1.24024,0 -1.24024,-1.22783 v -12.45195 q 0,-1.24024 1.24024,-1.24024 l 8.69404,-0.0124 q 1.21543,0 1.21543,1.26504 l -0.0248,6.23838 q 0,1.27744 -1.24023,1.27744 l -1.15342,-0.0124 2.24483,4.35322 q 0.49609,1.15342 -0.60772,1.72393 -1.0914,0.5705 -1.67432,-0.5209 z"
         style="font-style:normal;font-variant:normal;font-weight:normal;font-stretch:normal;font-size:25.39999962px;font-family:'HeavyData Nerd Font';-inkscape-font-specification:'HeavyData Nerd Font, Normal';font-variant-ligatures:normal;font-variant-caps:normal;font-variant-numeric:normal;font-feature-settings:normal;text-align:center;writing-mode:lr-tb;text-anchor:middle;stroke-width:0.26458332"
         id="path4860"
         inkscape:connector-curvature="0" />
      <path
         d="m -314.93407,414.65104 q -0.60771,0 -0.60771,-0.62011 0,-0.21084 0.0744,-0.34727 l -0.0124,-0.0124 2.54248,-10.62881 0.42168,-1.77354 0.12402,-0.50849 q 0.23565,-0.96739 1.10381,-0.96739 0.0992,0 0.21084,0.0124 v -0.0124 h 4.06797 v 0.0124 q 0.11162,-0.0124 0.21084,-0.0124 0.86816,0 1.10381,0.96739 l 0.12402,0.50849 3.05098,12.38994 q 0.0372,0.14883 0.0372,0.40928 0,0.62012 -0.62011,0.62012 h -3.24942 q -0.11162,0.0124 -0.21084,0.0124 -0.86816,0 -1.10381,-0.96738 l -2.61689,-10.69082 h -0.0124 l -2.50528,10.66601 q -0.23564,0.96739 -1.1038,0.96739 z m 5.95313,-1.19062 q -0.0992,1.22783 -1.24024,1.24023 -1.24023,0 -1.24023,-1.21543 l -0.0124,-2.51767 q 0,-1.24024 1.24023,-1.24024 1.14102,0.0124 1.24023,1.25264 z"
         style="font-style:normal;font-variant:normal;font-weight:normal;font-stretch:normal;font-size:25.39999962px;font-family:'HeavyData Nerd Font';-inkscape-font-specification:'HeavyData Nerd Font, Normal';font-variant-ligatures:normal;font-variant-caps:normal;font-variant-numeric:normal;font-feature-settings:normal;text-align:center;writing-mode:lr-tb;text-anchor:middle;stroke-width:0.26458332"
         id="path4862"
         inkscape:connector-curvature="0" />
      <path
         d="m -289.44725,399.84264 q 0.60771,0 0.60771,0.62012 0,0.21084 -0.0744,0.34727 l 0.0124,0.0124 -2.54248,10.62881 -0.42168,1.77353 -0.12402,0.5085 q -0.23565,0.96738 -1.10381,0.96738 -0.0992,0 -0.21084,-0.0124 v 0.0124 h -4.06797 v -0.0124 q -0.11162,0.0124 -0.21084,0.0124 -0.86816,0 -1.10381,-0.96738 l -0.12402,-0.5085 -3.05098,-12.38994 q -0.0372,-0.14883 -0.0372,-0.40928 0,-0.62011 0.62012,-0.62011 h 3.24942 q 0.11162,-0.0124 0.21084,-0.0124 0.86816,0 1.1038,0.96739 l 2.6169,10.69082 h 0.0124 l 2.50527,-10.66602 q 0.23565,-0.96738 1.10381,-0.96738 z"
         style="font-style:normal;font-variant:normal;font-weight:normal;font-stretch:normal;font-size:25.39999962px;font-family:'HeavyData Nerd Font';-inkscape-font-specification:'HeavyData Nerd Font, Normal';font-variant-ligatures:normal;font-variant-caps:normal;font-variant-numeric:normal;font-feature-settings:normal;text-align:center;writing-mode:lr-tb;text-anchor:middle;stroke-width:0.26458332"
         id="path4864"
         inkscape:connector-curvature="0" />
      <path
         d="m -277.45419,405.93219 q 1.24024,0 1.24024,1.27745 0,1.24023 -1.24024,1.24023 h -7.40419 v 3.80752 l 7.4166,0.0248 q 1.26504,-0.0248 1.25263,1.19063 0.0248,1.22783 -1.21543,1.22783 h -8.69404 q -1.24023,0 -1.24023,-1.24023 l 0.0124,-6.26319 q -0.0124,-1.24023 1.22783,-1.25263 l 0.0124,-4.92373 q 0,-1.24024 1.24024,-1.24024 l 7.429,-0.0124 q 1.24024,0 1.24024,1.30225 0,1.17822 -1.24024,1.17822 h -3.7083 v 3.67109 z"
         style="font-style:normal;font-variant:normal;font-weight:normal;font-stretch:normal;font-size:25.39999962px;font-family:'HeavyData Nerd Font';-inkscape-font-specification:'HeavyData Nerd Font, Normal';font-variant-ligatures:normal;font-variant-caps:normal;font-variant-numeric:normal;font-feature-settings:normal;text-align:center;writing-mode:lr-tb;text-anchor:middle;stroke-width:0.26458332"
         id="path4866"
         inkscape:connector-curvature="0" />
      <path
         d="m -268.73534,412.14577 3.7083,0.0372 v -1.24024 q 0,-1.16582 1.25264,-1.17822 1.24023,0.0248 1.24023,1.20303 v 2.51767 q 0,1.21543 -1.24023,1.21543 h -8.70645 q -1.21543,0 -1.21543,-1.19062 l -0.0124,-12.55118 q 0,-1.24023 1.24024,-1.24023 h 2.54248 q 1.079,0.0124 1.17822,1.25264 z"
         style="font-style:normal;font-variant:normal;font-weight:normal;font-stretch:normal;font-size:25.39999962px;font-family:'HeavyData Nerd Font';-inkscape-font-specification:'HeavyData Nerd Font, Normal';font-variant-ligatures:normal;font-variant-caps:normal;font-variant-numeric:normal;font-feature-settings:normal;text-align:center;writing-mode:lr-tb;text-anchor:middle;stroke-width:0.26458332"
         id="path4868"
         inkscape:connector-curvature="0" />
      <path
         d="m -253.31923,414.65104 q -0.60772,0 -0.60772,-0.62011 0,-0.21084 0.0744,-0.34727 l -0.0124,-0.0124 2.54248,-10.62881 0.42168,-1.77354 0.12402,-0.50849 q 0.23564,-0.96739 1.10381,-0.96739 0.0992,0 0.21084,0.0124 v -0.0124 h 4.06797 v 0.0124 q 0.11162,-0.0124 0.21084,-0.0124 0.86816,0 1.10381,0.96739 l 0.12402,0.50849 3.05098,12.38994 q 0.0372,0.14883 0.0372,0.40928 0,0.62012 -0.62011,0.62012 h -3.24942 q -0.11162,0.0124 -0.21084,0.0124 -0.86816,0 -1.10381,-0.96738 l -2.61689,-10.69082 h -0.0124 l -2.50528,10.66601 q -0.23564,0.96739 -1.10381,0.96739 z m 5.95312,-1.19062 q -0.0992,1.22783 -1.24023,1.24023 -1.24023,0 -1.24023,-1.21543 l -0.0124,-2.51767 q 0,-1.24024 1.24024,-1.24024 1.14101,0.0124 1.24023,1.25264 z"
         style="font-style:normal;font-variant:normal;font-weight:normal;font-stretch:normal;font-size:25.39999962px;font-family:'HeavyData Nerd Font';-inkscape-font-specification:'HeavyData Nerd Font, Normal';font-variant-ligatures:normal;font-variant-caps:normal;font-variant-numeric:normal;font-feature-settings:normal;text-align:center;writing-mode:lr-tb;text-anchor:middle;stroke-width:0.26458332"
         id="path4870"
         inkscape:connector-curvature="0" />
      <path
         d="m -236.88613,403.04245 v 10.51719 q -0.0124,1.14101 -1.25263,1.14101 -1.24024,0 -1.24024,-1.21543 v -12.52637 q 0,-1.16582 1.25264,-1.20302 l 1.81074,0.0124 q 0.70694,0 1.15342,0.78135 l 3.23701,8.57002 v -8.14834 q 0.0992,-1.24024 1.19063,-1.25264 h 2.53008 q 1.24023,0 1.24023,1.24023 l -0.0124,12.55118 q 0,1.19062 -1.21543,1.19062 h -3.34864 q -1.01699,0 -1.32705,-0.80615 z"
         style="font-style:normal;font-variant:normal;font-weight:normal;font-stretch:normal;font-size:25.39999962px;font-family:'HeavyData Nerd Font';-inkscape-font-specification:'HeavyData Nerd Font, Normal';font-variant-ligatures:normal;font-variant-caps:normal;font-variant-numeric:normal;font-feature-settings:normal;text-align:center;writing-mode:lr-tb;text-anchor:middle;stroke-width:0.26458332"
         id="path4872"
         inkscape:connector-curvature="0" />
      <path
         d="m -220.11816,402.2611 -1.87275,0.0124 0.0248,9.93428 h 1.94717 l 2.48047,-4.89893 z m 0.91778,12.43955 h -4.04317 q -1.24023,0 -1.24023,-1.22783 v -12.45195 q 0,-1.24024 1.24023,-1.24024 l 4.93614,-0.0124 v 0.0248 h 1.12861 q 0.59531,0 0.97978,0.71934 l 2.86495,5.48184 q 0.32246,0.63252 0.32246,1.25263 0,0.64493 -0.33487,1.27744 l -2.77812,5.49424 q -0.38447,0.69453 -0.99219,0.69453 h -1.92236 q -0.0744,0 -0.16123,-0.0124 z"
         style="font-style:normal;font-variant:normal;font-weight:normal;font-stretch:normal;font-size:25.39999962px;font-family:'HeavyData Nerd Font';-inkscape-font-specification:'HeavyData Nerd Font, Normal';font-variant-ligatures:normal;font-variant-caps:normal;font-variant-numeric:normal;font-feature-settings:normal;text-align:center;writing-mode:lr-tb;text-anchor:middle;stroke-width:0.26458332"
         id="path4874"
         inkscape:connector-curvature="0" />
      <path
         d="m -372.44374,443.10202 q -0.31006,0.80615 -1.32705,0.80615 v -0.0124 q -1.00459,0 -1.31465,-0.80615 l -2.03398,-5.46944 v 7.57783 q -0.0992,1.24024 -1.19063,1.25264 h -2.53007 q -1.24024,0 -1.24024,-1.24023 l 0.0124,-12.55117 q 0,-1.19063 1.21543,-1.19063 h 3.34864 v 0.0372 q 0.64492,0.062 1.0542,0.78134 l 2.6789,7.11895 2.69131,-7.10654 q 0.22324,-0.63252 0.89297,-0.78135 l 0.97978,-0.0124 q 1.25264,0.0372 1.25264,1.20302 v 12.52637 q 0,1.21543 -1.24023,1.21543 -1.24024,0 -1.25264,-1.14101 v -7.57784 z"
         style="font-style:normal;font-variant:normal;font-weight:normal;font-stretch:normal;font-size:25.39999962px;font-family:'HeavyData Nerd Font';-inkscape-font-specification:'HeavyData Nerd Font, Normal';font-variant-ligatures:normal;font-variant-caps:normal;font-variant-numeric:normal;font-feature-settings:normal;text-align:center;writing-mode:lr-tb;text-anchor:middle;stroke-width:0.26458332"
         id="path4876"
         inkscape:connector-curvature="0" />
      <path
         d="m -365.70927,446.40104 q -0.60771,0 -0.60771,-0.62012 0,-0.21084 0.0744,-0.34726 l -0.0124,-0.0124 2.54248,-10.62881 0.42168,-1.77354 0.12403,-0.50849 q 0.23564,-0.96739 1.1038,-0.96739 0.0992,0 0.21084,0.0124 v -0.0124 h 4.06797 v 0.0124 q 0.11162,-0.0124 0.21084,-0.0124 0.86817,0 1.10381,0.96739 l 0.12402,0.50849 3.05098,12.38994 q 0.0372,0.14883 0.0372,0.40928 0,0.62012 -0.62012,0.62012 h -3.24941 q -0.11162,0.0124 -0.21084,0.0124 -0.86817,0 -1.10381,-0.96738 l -2.6169,-10.69082 h -0.0124 l -2.50527,10.66601 q -0.23565,0.96739 -1.10381,0.96739 z m 5.95313,-1.19062 q -0.0992,1.22783 -1.24023,1.24023 -1.24024,0 -1.24024,-1.21543 l -0.0124,-2.51767 q 0,-1.24024 1.24023,-1.24024 1.14102,0.0124 1.24024,1.25264 z"
         style="font-style:normal;font-variant:normal;font-weight:normal;font-stretch:normal;font-size:25.39999962px;font-family:'HeavyData Nerd Font';-inkscape-font-specification:'HeavyData Nerd Font, Normal';font-variant-ligatures:normal;font-variant-caps:normal;font-variant-numeric:normal;font-feature-settings:normal;text-align:center;writing-mode:lr-tb;text-anchor:middle;stroke-width:0.26458332"
         id="path4878"
         inkscape:connector-curvature="0" />
      <path
         d="m -345.54305,445.22282 q -0.0992,1.22783 -1.17823,1.24023 h -2.54248 q -1.24023,0 -1.24023,-1.22783 l -0.0124,-12.47676 q 0,-1.24023 1.24023,-1.24023 h 2.59209 q 1.079,0.0124 1.17822,1.25264 z"
         style="font-style:normal;font-variant:normal;font-weight:normal;font-stretch:normal;font-size:25.39999962px;font-family:'HeavyData Nerd Font';-inkscape-font-specification:'HeavyData Nerd Font, Normal';font-variant-ligatures:normal;font-variant-caps:normal;font-variant-numeric:normal;font-feature-settings:normal;text-align:center;writing-mode:lr-tb;text-anchor:middle;stroke-width:0.26458332"
         id="path4880"
         inkscape:connector-curvature="0" />
      <path
         d="m -339.35429,434.79245 v 10.51719 q -0.0124,1.14101 -1.25263,1.14101 -1.24024,0 -1.24024,-1.21543 v -12.52637 q 0,-1.16582 1.25264,-1.20302 l 1.81074,0.0124 q 0.70693,0 1.15342,0.78135 l 3.23701,8.57002 v -8.14834 q 0.0992,-1.24024 1.19063,-1.25264 h 2.53007 q 1.24024,0 1.24024,1.24023 l -0.0124,12.55118 q 0,1.19062 -1.21543,1.19062 h -3.34864 q -1.01699,0 -1.32705,-0.80615 z"
         style="font-style:normal;font-variant:normal;font-weight:normal;font-stretch:normal;font-size:25.39999962px;font-family:'HeavyData Nerd Font';-inkscape-font-specification:'HeavyData Nerd Font, Normal';font-variant-ligatures:normal;font-variant-caps:normal;font-variant-numeric:normal;font-feature-settings:normal;text-align:center;writing-mode:lr-tb;text-anchor:middle;stroke-width:0.26458332"
         id="path4882"
         inkscape:connector-curvature="0" />
      <path
         d="m -320.70116,445.21042 q -0.0992,1.24023 -1.33945,1.24023 -1.24024,0 -1.24024,-1.24023 l 0.0124,-8.78086 h -3.03857 q -1.26504,0 -1.26504,-1.14102 v -2.62929 q 0,-1.19063 1.21543,-1.19063 h 8.70644 q 1.24024,0 1.24024,1.21543 v 0.18603 q 0,1.11622 -1.25264,1.11622 h -3.03857 z"
         style="font-style:normal;font-variant:normal;font-weight:normal;font-stretch:normal;font-size:25.39999962px;font-family:'HeavyData Nerd Font';-inkscape-font-specification:'HeavyData Nerd Font, Normal';font-variant-ligatures:normal;font-variant-caps:normal;font-variant-numeric:normal;font-feature-settings:normal;text-align:center;writing-mode:lr-tb;text-anchor:middle;stroke-width:0.26458332"
         id="path4884"
         inkscape:connector-curvature="0" />
      <path
         d="m -314.85966,446.40104 q -0.60771,0 -0.60771,-0.62012 0,-0.21084 0.0744,-0.34726 l -0.0124,-0.0124 2.54248,-10.62881 0.42168,-1.77354 0.12402,-0.50849 q 0.23565,-0.96739 1.10381,-0.96739 0.0992,0 0.21084,0.0124 v -0.0124 h 4.06797 v 0.0124 q 0.11162,-0.0124 0.21084,-0.0124 0.86816,0 1.10381,0.96739 l 0.12402,0.50849 3.05098,12.38994 q 0.0372,0.14883 0.0372,0.40928 0,0.62012 -0.62012,0.62012 h -3.24942 q -0.11162,0.0124 -0.21084,0.0124 -0.86816,0 -1.1038,-0.96738 l -2.6169,-10.69082 h -0.0124 l -2.50527,10.66601 q -0.23565,0.96739 -1.10381,0.96739 z m 5.95313,-1.19062 q -0.0992,1.22783 -1.24024,1.24023 -1.24023,0 -1.24023,-1.21543 l -0.0124,-2.51767 q 0,-1.24024 1.24023,-1.24024 1.14102,0.0124 1.24023,1.25264 z"
         style="font-style:normal;font-variant:normal;font-weight:normal;font-stretch:normal;font-size:25.39999962px;font-family:'HeavyData Nerd Font';-inkscape-font-specification:'HeavyData Nerd Font, Normal';font-variant-ligatures:normal;font-variant-caps:normal;font-variant-numeric:normal;font-feature-settings:normal;text-align:center;writing-mode:lr-tb;text-anchor:middle;stroke-width:0.26458332"
         id="path4886"
         inkscape:connector-curvature="0" />
      <path
         d="m -294.69345,445.22282 q -0.0992,1.22783 -1.17822,1.24023 h -2.54248 q -1.24023,0 -1.24023,-1.22783 l -0.0124,-12.47676 q 0,-1.24023 1.24024,-1.24023 h 2.59209 q 1.079,0.0124 1.17822,1.25264 z"
         style="font-style:normal;font-variant:normal;font-weight:normal;font-stretch:normal;font-size:25.39999962px;font-family:'HeavyData Nerd Font';-inkscape-font-specification:'HeavyData Nerd Font, Normal';font-variant-ligatures:normal;font-variant-caps:normal;font-variant-numeric:normal;font-feature-settings:normal;text-align:center;writing-mode:lr-tb;text-anchor:middle;stroke-width:0.26458332"
         id="path4888"
         inkscape:connector-curvature="0" />
      <path
         d="m -288.50468,434.79245 v 10.51719 q -0.0124,1.14101 -1.25263,1.14101 -1.24024,0 -1.24024,-1.21543 v -12.52637 q 0,-1.16582 1.25264,-1.20302 l 1.81074,0.0124 q 0.70693,0 1.15342,0.78135 l 3.23701,8.57002 v -8.14834 q 0.0992,-1.24024 1.19063,-1.25264 h 2.53007 q 1.24024,0 1.24024,1.24023 l -0.0124,12.55118 q 0,1.19062 -1.21543,1.19062 h -3.34864 q -1.01699,0 -1.32705,-0.80615 z"
         style="font-style:normal;font-variant:normal;font-weight:normal;font-stretch:normal;font-size:25.39999962px;font-family:'HeavyData Nerd Font';-inkscape-font-specification:'HeavyData Nerd Font, Normal';font-variant-ligatures:normal;font-variant-caps:normal;font-variant-numeric:normal;font-feature-settings:normal;text-align:center;writing-mode:lr-tb;text-anchor:middle;stroke-width:0.26458332"
         id="path4890"
         inkscape:connector-curvature="0" />
      <path
         d="m -269.88876,445.22282 q -0.0992,1.22783 -1.17822,1.24023 h -2.54248 q -1.24024,0 -1.24024,-1.22783 l -0.0124,-12.47676 q 0,-1.24023 1.24024,-1.24023 h 2.59208 q 1.07901,0.0124 1.17823,1.25264 z"
         style="font-style:normal;font-variant:normal;font-weight:normal;font-stretch:normal;font-size:25.39999962px;font-family:'HeavyData Nerd Font';-inkscape-font-specification:'HeavyData Nerd Font, Normal';font-variant-ligatures:normal;font-variant-caps:normal;font-variant-numeric:normal;font-feature-settings:normal;text-align:center;writing-mode:lr-tb;text-anchor:middle;stroke-width:0.26458332"
         id="path4892"
         inkscape:connector-curvature="0" />
      <path
         d="m -263.69999,434.79245 v 10.51719 q -0.0124,1.14101 -1.25264,1.14101 -1.24023,0 -1.24023,-1.21543 v -12.52637 q 0,-1.16582 1.25264,-1.20302 l 1.81074,0.0124 q 0.70693,0 1.15342,0.78135 l 3.23701,8.57002 v -8.14834 q 0.0992,-1.24024 1.19062,-1.25264 h 2.53008 q 1.24024,0 1.24024,1.24023 l -0.0124,12.55118 q 0,1.19062 -1.21543,1.19062 h -3.34863 q -1.01699,0 -1.32705,-0.80615 z"
         style="font-style:normal;font-variant:normal;font-weight:normal;font-stretch:normal;font-size:25.39999962px;font-family:'HeavyData Nerd Font';-inkscape-font-specification:'HeavyData Nerd Font, Normal';font-variant-ligatures:normal;font-variant-caps:normal;font-variant-numeric:normal;font-feature-settings:normal;text-align:center;writing-mode:lr-tb;text-anchor:middle;stroke-width:0.26458332"
         id="path4894"
         inkscape:connector-curvature="0" />
      <path
         d="m -242.62841,432.70885 q -0.0496,1.24024 -1.26504,1.24024 h -4.91132 l -0.0248,7.50342 6.21357,0.0372 v -2.48046 l -2.45566,-0.0248 q -1.25264,-0.0124 -1.25264,-1.25264 0.0124,-1.25263 1.26504,-1.25263 l 2.43086,0.0248 1.25264,-0.0124 q 1.24023,0.0248 1.24023,1.20303 v 7.54062 q 0,1.21543 -1.24023,1.21543 -1.25264,0 -1.24024,-1.28984 v -1.19063 q -1.24023,2.48047 -3.10058,2.48047 h -4.36563 q -1.21543,0 -1.21543,-1.19062 l -0.0124,-12.55118 q 0,-1.24023 1.24024,-1.24023 h 6.26318 q 1.079,0 1.17822,1.24023 z"
         style="font-style:normal;font-variant:normal;font-weight:normal;font-stretch:normal;font-size:25.39999962px;font-family:'HeavyData Nerd Font';-inkscape-font-specification:'HeavyData Nerd Font, Normal';font-variant-ligatures:normal;font-variant-caps:normal;font-variant-numeric:normal;font-feature-settings:normal;text-align:center;writing-mode:lr-tb;text-anchor:middle;stroke-width:0.26458332"
         id="path4896"
         inkscape:connector-curvature="0" />
      <path
         d="m -375.70555,478.15104 q -0.60772,0 -0.60772,-0.62012 0,-0.21084 0.0744,-0.34726 l -0.0124,-0.0124 2.54248,-10.62881 0.42168,-1.77354 0.12403,-0.50849 q 0.23564,-0.96739 1.10381,-0.96739 0.0992,0 0.21084,0.0124 v -0.0124 h 4.06796 v 0.0124 q 0.11163,-0.0124 0.21084,-0.0124 0.86817,0 1.10381,0.96739 l 0.12403,0.50849 3.05097,12.38994 q 0.0372,0.14883 0.0372,0.40928 0,0.62012 -0.62012,0.62012 h -3.24941 q -0.11162,0.0124 -0.21084,0.0124 -0.86817,0 -1.10381,-0.96738 l -2.61689,-10.69082 h -0.0124 l -2.50527,10.66601 q -0.23564,0.96739 -1.10381,0.96739 z m 5.95312,-1.19062 q -0.0992,1.22783 -1.24023,1.24023 -1.24024,0 -1.24024,-1.21543 l -0.0124,-2.51767 q 0,-1.24024 1.24023,-1.24024 1.14102,0.0124 1.24024,1.25264 z"
         style="font-style:normal;font-variant:normal;font-weight:normal;font-stretch:normal;font-size:25.39999962px;font-family:'HeavyData Nerd Font';-inkscape-font-specification:'HeavyData Nerd Font, Normal';font-variant-ligatures:normal;font-variant-caps:normal;font-variant-numeric:normal;font-feature-settings:normal;text-align:center;writing-mode:lr-tb;text-anchor:middle;stroke-width:0.26458332"
         id="path4898"
         inkscape:connector-curvature="0" />
      <path
         d="m -359.27245,466.54245 v 10.51719 q -0.0124,1.14101 -1.25263,1.14101 -1.24024,0 -1.24024,-1.21543 v -12.52637 q 0,-1.16582 1.25264,-1.20302 l 1.81074,0.0124 q 0.70693,0 1.15342,0.78135 l 3.23701,8.57002 v -8.14834 q 0.0992,-1.24024 1.19062,-1.25264 h 2.53008 q 1.24024,0 1.24024,1.24023 l -0.0124,12.55118 q 0,1.19062 -1.21542,1.19062 h -3.34864 q -1.01699,0 -1.32705,-0.80615 z"
         style="font-style:normal;font-variant:normal;font-weight:normal;font-stretch:normal;font-size:25.39999962px;font-family:'HeavyData Nerd Font';-inkscape-font-specification:'HeavyData Nerd Font, Normal';font-variant-ligatures:normal;font-variant-caps:normal;font-variant-numeric:normal;font-feature-settings:normal;text-align:center;writing-mode:lr-tb;text-anchor:middle;stroke-width:0.26458332"
         id="path4900"
         inkscape:connector-curvature="0" />
      <path
         d="m -337.25829,468.25397 v 7.46621 h 6.11436 v -7.45381 z m 7.35459,-5.02295 q 1.24024,0 1.24024,1.24024 v 12.51396 q 0,1.21543 -1.24024,1.21543 h -8.70644 q -1.22783,0 -1.21543,-1.21543 l -0.0124,-12.52637 q 0,-1.24023 1.24023,-1.24023 z"
         style="font-style:normal;font-variant:normal;font-weight:normal;font-stretch:normal;font-size:25.39999962px;font-family:'HeavyData Nerd Font';-inkscape-font-specification:'HeavyData Nerd Font, Normal';font-variant-ligatures:normal;font-variant-caps:normal;font-variant-numeric:normal;font-feature-settings:normal;text-align:center;writing-mode:lr-tb;text-anchor:middle;stroke-width:0.26458332"
         id="path4902"
         inkscape:connector-curvature="0" />
      <path
         d="m -319.95702,465.71149 -3.7455,0.0124 v 3.79512 h 3.7207 z m 4.89893,5.06016 q 0,1.27744 -1.24024,1.27744 l -4.92373,-0.0372 0.0372,4.89893 q 0,1.28984 -1.24023,1.28984 h -2.51768 q -1.24023,0 -1.24023,-1.22783 v -12.45195 q 0,-1.24024 1.24023,-1.24024 l 8.69404,-0.0124 q 1.21543,0 1.21543,1.26504 z"
         style="font-style:normal;font-variant:normal;font-weight:normal;font-stretch:normal;font-size:25.39999962px;font-family:'HeavyData Nerd Font';-inkscape-font-specification:'HeavyData Nerd Font, Normal';font-variant-ligatures:normal;font-variant-caps:normal;font-variant-numeric:normal;font-feature-settings:normal;text-align:center;writing-mode:lr-tb;text-anchor:middle;stroke-width:0.26458332"
         id="path4904"
         inkscape:connector-curvature="0" />
      <path
         d="m -311.31258,463.21862 q 1.24023,0 1.33945,1.24023 v 8.78086 h 6.11436 v -8.76845 q 0,-1.24024 1.24023,-1.24024 1.24023,0 1.24023,1.24024 v 12.51396 q 0,1.21543 -1.24023,1.21543 h -8.70645 q -1.22783,0 -1.21542,-1.21543 l -0.0124,-12.52637 q 0,-1.24023 1.24024,-1.24023 z"
         style="font-style:normal;font-variant:normal;font-weight:normal;font-stretch:normal;font-size:25.39999962px;font-family:'HeavyData Nerd Font';-inkscape-font-specification:'HeavyData Nerd Font, Normal';font-variant-ligatures:normal;font-variant-caps:normal;font-variant-numeric:normal;font-feature-settings:normal;text-align:center;writing-mode:lr-tb;text-anchor:middle;stroke-width:0.26458332"
         id="path4906"
         inkscape:connector-curvature="0" />
      <path
         d="m -293.9369,475.64577 3.7083,0.0372 v -1.24023 q 0,-1.16582 1.25264,-1.17822 1.24023,0.0248 1.24023,1.20303 v 2.51767 q 0,1.21543 -1.24023,1.21543 h -8.70645 q -1.21543,0 -1.21543,-1.19062 l -0.0124,-12.55118 q 0,-1.24023 1.24024,-1.24023 h 2.54248 q 1.079,0.0124 1.17822,1.25264 z"
         style="font-style:normal;font-variant:normal;font-weight:normal;font-stretch:normal;font-size:25.39999962px;font-family:'HeavyData Nerd Font';-inkscape-font-specification:'HeavyData Nerd Font, Normal';font-variant-ligatures:normal;font-variant-caps:normal;font-variant-numeric:normal;font-feature-settings:normal;text-align:center;writing-mode:lr-tb;text-anchor:middle;stroke-width:0.26458332"
         id="path4908"
         inkscape:connector-curvature="0" />
      <path
         d="m -275.37059,469.43219 q 1.24023,0 1.24023,1.27745 0,1.24023 -1.24023,1.24023 h -7.4042 v 3.80752 l 7.4166,0.0248 q 1.26504,-0.0248 1.25264,1.19063 0.0248,1.22783 -1.21543,1.22783 h -8.69404 q -1.24024,0 -1.24024,-1.24023 l 0.0124,-6.26319 q -0.0124,-1.24023 1.22784,-1.25263 l 0.0124,-4.92373 q 0,-1.24024 1.24023,-1.24024 l 7.42901,-0.0124 q 1.24023,0 1.24023,1.30225 0,1.17822 -1.24023,1.17822 h -3.7083 v 3.67109 z"
         style="font-style:normal;font-variant:normal;font-weight:normal;font-stretch:normal;font-size:25.39999962px;font-family:'HeavyData Nerd Font';-inkscape-font-specification:'HeavyData Nerd Font, Normal';font-variant-ligatures:normal;font-variant-caps:normal;font-variant-numeric:normal;font-feature-settings:normal;text-align:center;writing-mode:lr-tb;text-anchor:middle;stroke-width:0.26458332"
         id="path4910"
         inkscape:connector-curvature="0" />
      <path
         d="m -269.13221,466.54245 v 10.51719 q -0.0124,1.14101 -1.25264,1.14101 -1.24023,0 -1.24023,-1.21543 v -12.52637 q 0,-1.16582 1.25263,-1.20302 l 1.81075,0.0124 q 0.70693,0 1.15341,0.78135 l 3.23702,8.57002 v -8.14834 q 0.0992,-1.24024 1.19062,-1.25264 h 2.53008 q 1.24023,0 1.24023,1.24023 l -0.0124,12.55118 q 0,1.19062 -1.21543,1.19062 h -3.34863 q -1.01699,0 -1.32705,-0.80615 z"
         style="font-style:normal;font-variant:normal;font-weight:normal;font-stretch:normal;font-size:25.39999962px;font-family:'HeavyData Nerd Font';-inkscape-font-specification:'HeavyData Nerd Font, Normal';font-variant-ligatures:normal;font-variant-caps:normal;font-variant-numeric:normal;font-feature-settings:normal;text-align:center;writing-mode:lr-tb;text-anchor:middle;stroke-width:0.26458332"
         id="path4912"
         inkscape:connector-curvature="0" />
      <path
         d="m -250.47909,476.96042 q -0.0992,1.24023 -1.33945,1.24023 -1.24023,0 -1.24023,-1.24023 l 0.0124,-8.78086 h -3.03858 q -1.26504,0 -1.26504,-1.14102 v -2.6293 q 0,-1.19062 1.21543,-1.19062 h 8.70645 q 1.24023,0 1.24023,1.21543 v 0.18603 q 0,1.11622 -1.25263,1.11622 h -3.03858 z"
         style="font-style:normal;font-variant:normal;font-weight:normal;font-stretch:normal;font-size:25.39999962px;font-family:'HeavyData Nerd Font';-inkscape-font-specification:'HeavyData Nerd Font, Normal';font-variant-ligatures:normal;font-variant-caps:normal;font-variant-numeric:normal;font-feature-settings:normal;text-align:center;writing-mode:lr-tb;text-anchor:middle;stroke-width:0.26458332"
         id="path4914"
         inkscape:connector-curvature="0" />
      <path
         d="m -363.81171,507.39577 3.7083,0.0372 v -1.24023 q 0,-1.16582 1.25264,-1.17822 1.24024,0.0248 1.24024,1.20302 v 2.51768 q 0,1.21543 -1.24024,1.21543 h -8.70644 q -1.21543,0 -1.21543,-1.19062 l -0.0124,-12.55118 q 0,-1.24023 1.24024,-1.24023 h 2.54248 q 1.079,0.0124 1.17822,1.25264 z"
         style="font-style:normal;font-variant:normal;font-weight:normal;font-stretch:normal;font-size:25.39999962px;font-family:'HeavyData Nerd Font';-inkscape-font-specification:'HeavyData Nerd Font, Normal';font-variant-ligatures:normal;font-variant-caps:normal;font-variant-numeric:normal;font-feature-settings:normal;text-align:center;writing-mode:lr-tb;text-anchor:middle;stroke-width:0.26458332"
         id="path4916"
         inkscape:connector-curvature="0" />
      <path
         d="m -348.91649,508.72282 q -0.0992,1.22783 -1.17822,1.24023 h -2.54248 q -1.24024,0 -1.24024,-1.22783 l -0.0124,-12.47676 q 0,-1.24023 1.24023,-1.24023 h 2.59209 q 1.07901,0.0124 1.17823,1.25264 z"
         style="font-style:normal;font-variant:normal;font-weight:normal;font-stretch:normal;font-size:25.39999962px;font-family:'HeavyData Nerd Font';-inkscape-font-specification:'HeavyData Nerd Font, Normal';font-variant-ligatures:normal;font-variant-caps:normal;font-variant-numeric:normal;font-feature-settings:normal;text-align:center;writing-mode:lr-tb;text-anchor:middle;stroke-width:0.26458332"
         id="path4918"
         inkscape:connector-curvature="0" />
      <path
         d="m -340.24725,503.76188 0.0372,4.89893 q 0,1.28984 -1.24023,1.28984 h -2.51768 q -1.24023,0 -1.24023,-1.22783 v -12.45195 q 0,-1.24024 1.24023,-1.24024 l 8.69405,-0.0124 q 1.21543,0 1.21543,1.19062 v 0.0744 q 0,1.19062 -1.25264,1.16582 l -7.4166,0.0248 v 3.79512 h 7.4042 q 1.24023,0 1.24023,1.24023 0,1.28985 -1.24023,1.28985 z"
         style="font-style:normal;font-variant:normal;font-weight:normal;font-stretch:normal;font-size:25.39999962px;font-family:'HeavyData Nerd Font';-inkscape-font-specification:'HeavyData Nerd Font, Normal';font-variant-ligatures:normal;font-variant-caps:normal;font-variant-numeric:normal;font-feature-settings:normal;text-align:center;writing-mode:lr-tb;text-anchor:middle;stroke-width:0.26458332"
         id="path4920"
         inkscape:connector-curvature="0" />
      <path
         d="m -321.68094,501.18219 q 1.24023,0 1.24023,1.27744 0,1.24024 -1.24023,1.24024 h -7.4042 v 3.80752 l 7.4166,0.0248 q 1.26504,-0.0248 1.25263,1.19063 0.0248,1.22783 -1.21542,1.22783 h -8.69405 q -1.24023,0 -1.24023,-1.24023 l 0.0124,-6.26319 q -0.0124,-1.24023 1.22783,-1.25263 l 0.0124,-4.92373 q 0,-1.24024 1.24024,-1.24024 l 7.429,-0.0124 q 1.24024,0 1.24024,1.30224 0,1.17823 -1.24024,1.17823 h -3.7083 v 3.67109 z"
         style="font-style:normal;font-variant:normal;font-weight:normal;font-stretch:normal;font-size:25.39999962px;font-family:'HeavyData Nerd Font';-inkscape-font-specification:'HeavyData Nerd Font, Normal';font-variant-ligatures:normal;font-variant-caps:normal;font-variant-numeric:normal;font-feature-settings:normal;text-align:center;writing-mode:lr-tb;text-anchor:middle;stroke-width:0.26458332"
         id="path4922"
         inkscape:connector-curvature="0" />
      <path
         d="m -308.00116,500.00397 q 1.24024,0 1.24024,1.21543 v 7.54063 q 0,1.24023 -1.24024,1.24023 h -7.36699 q -1.28984,-0.0124 -1.26504,-1.24023 0.0124,-1.24024 1.24023,-1.24024 h 6.15157 v -2.55488 l -7.46621,0.0124 q -1.17823,0 -1.21543,-1.21543 l -0.0124,-7.50342 q 0,-1.24023 1.24024,-1.24023 l 8.60722,0.0124 q 1.20303,0.0992 1.25264,1.24024 -0.0124,1.24023 -1.25264,1.24023 l -7.30498,0.0124 0.0372,2.49287 z"
         style="font-style:normal;font-variant:normal;font-weight:normal;font-stretch:normal;font-size:25.39999962px;font-family:'HeavyData Nerd Font';-inkscape-font-specification:'HeavyData Nerd Font, Normal';font-variant-ligatures:normal;font-variant-caps:normal;font-variant-numeric:normal;font-feature-settings:normal;text-align:center;writing-mode:lr-tb;text-anchor:middle;stroke-width:0.26458332"
         id="path4924"
         inkscape:connector-curvature="0" />
      <path
         d="m -298.02967,508.71042 q -0.0992,1.24023 -1.33946,1.24023 -1.24023,0 -1.24023,-1.24023 l 0.0124,-8.78086 h -3.03857 q -1.26504,0 -1.26504,-1.14102 v -2.6293 q 0,-1.19062 1.21543,-1.19062 h 8.70644 q 1.24024,0 1.24024,1.21543 v 0.18603 q 0,1.11621 -1.25264,1.11621 h -3.03857 z"
         style="font-style:normal;font-variant:normal;font-weight:normal;font-stretch:normal;font-size:25.39999962px;font-family:'HeavyData Nerd Font';-inkscape-font-specification:'HeavyData Nerd Font, Normal';font-variant-ligatures:normal;font-variant-caps:normal;font-variant-numeric:normal;font-feature-settings:normal;text-align:center;writing-mode:lr-tb;text-anchor:middle;stroke-width:0.26458332"
         id="path4926"
         inkscape:connector-curvature="0" />
      <path
         d="m -288.80233,503.56344 -3.48506,-6.59804 q -0.14883,-0.35967 -0.14883,-0.65733 0,-0.66972 0.75655,-1.0666 0.37207,-0.19844 0.69453,-0.19844 l 1.98437,-0.0372 q 0.59531,0 0.97979,0.71933 l 2.50527,5.02295 2.72852,-5.08496 q 0.38447,-0.70693 0.99218,-0.70693 0.31006,0 0.68213,0.18603 0.75655,0.39688 0.75655,1.0666 0,0.29766 -0.14883,0.65733 l -3.32383,6.53603 -0.0124,5.32061 q -0.0992,1.22783 -1.17823,1.24023 h -2.54248 q -1.24023,0 -1.24023,-1.22783 z"
         style="font-style:normal;font-variant:normal;font-weight:normal;font-stretch:normal;font-size:25.39999962px;font-family:'HeavyData Nerd Font';-inkscape-font-specification:'HeavyData Nerd Font, Normal';font-variant-ligatures:normal;font-variant-caps:normal;font-variant-numeric:normal;font-feature-settings:normal;text-align:center;writing-mode:lr-tb;text-anchor:middle;stroke-width:0.26458332"
         id="path4928"
         inkscape:connector-curvature="0" />
      <path
         d="m -273.2746,507.39577 3.7083,0.0372 v -1.24023 q 0,-1.16582 1.25264,-1.17822 1.24024,0.0248 1.24024,1.20302 v 2.51768 q 0,1.21543 -1.24024,1.21543 h -8.70644 q -1.21543,0 -1.21543,-1.19062 l -0.0124,-12.55118 q 0,-1.24023 1.24024,-1.24023 h 2.54248 q 1.079,0.0124 1.17822,1.25264 z"
         style="font-style:normal;font-variant:normal;font-weight:normal;font-stretch:normal;font-size:25.39999962px;font-family:'HeavyData Nerd Font';-inkscape-font-specification:'HeavyData Nerd Font, Normal';font-variant-ligatures:normal;font-variant-caps:normal;font-variant-numeric:normal;font-feature-settings:normal;text-align:center;writing-mode:lr-tb;text-anchor:middle;stroke-width:0.26458332"
         id="path4930"
         inkscape:connector-curvature="0" />
      <path
         d="m -254.70829,501.18219 q 1.24024,0 1.24024,1.27744 0,1.24024 -1.24024,1.24024 h -7.4042 v 3.80752 l 7.4166,0.0248 q 1.26504,-0.0248 1.25264,1.19063 0.0248,1.22783 -1.21543,1.22783 h -8.69404 q -1.24024,0 -1.24024,-1.24023 l 0.0124,-6.26319 q -0.0124,-1.24023 1.22783,-1.25263 l 0.0124,-4.92373 q 0,-1.24024 1.24024,-1.24024 l 7.429,-0.0124 q 1.24023,0 1.24023,1.30224 0,1.17823 -1.24023,1.17823 h -3.7083 v 3.67109 z"
         style="font-style:normal;font-variant:normal;font-weight:normal;font-stretch:normal;font-size:25.39999962px;font-family:'HeavyData Nerd Font';-inkscape-font-specification:'HeavyData Nerd Font, Normal';font-variant-ligatures:normal;font-variant-caps:normal;font-variant-numeric:normal;font-feature-settings:normal;text-align:center;writing-mode:lr-tb;text-anchor:middle;stroke-width:0.26458332"
         id="path4932"
         inkscape:connector-curvature="0" />
    </g>
  </g>
</svg>
